<svg width="154" height="32" viewBox="0 0 154 32" fill="none" xmlns="http://www.w3.org/2000/svg">
    <path d="M0 24C0 24 0 7.38492 0 4.92338C0 2.46184 3.0917 2.26889 3.0917 2.26889L11.168 20.2316L19.2443 2.26889C19.2443 2.26889 22.3044 2.46184 22.3044 4.92338C22.3044 7.38492 22.3044 12.1928 22.3044 18.5515C22.3044 22.1538 19.4335 24 19.4335 24V7.79588L12.1775 24H10.1584L2.87086 7.76447V18.5515C2.87086 22.1538 0 24 0 24Z" fill="currentColor"/>
    <path d="M77.1196 23.8979V14.1629C77.1196 10.6457 75.1952 8.85574 72.2928 8.85574C69.3588 8.85574 67.3398 10.6771 67.3398 14.3827V18.4495C67.3398 22.1538 64.4689 23.8979 64.4689 23.8979V6.68891H67.3398V9.13837C68.4755 7.34838 70.5576 6.37488 72.8922 6.37488C76.8988 6.37488 79.9589 8.82434 79.9589 13.7547V18.4495C79.9589 22.1538 77.1196 23.8979 77.1196 23.8979Z" fill="currentColor"/>
    <path d="M85.9295 9.65592C87.0337 7.74032 89.3367 6.17015 92.3968 6.17015C97.0659 6.17015 100.599 9.62452 100.599 14.9945C100.599 20.3331 97.0344 23.9444 92.3968 23.9444C89.2421 23.9444 85.9295 21.8114 85.9295 19.4562V23.6618H83.0587V0.423342C83.0587 0.423342 85.9295 1.23077 85.9295 2.46154C85.9295 3.69231 85.9295 9.65592 85.9295 9.65592ZM97.6654 14.9945C97.6654 10.9435 94.9838 8.65102 91.7974 8.65102C88.6742 8.65102 85.9295 11.0377 85.9295 15.0259C85.9295 19.0769 88.6742 21.4322 91.7974 21.4322C94.9838 21.4322 97.6654 19.0455 97.6654 14.9945Z" fill="currentColor"/>
    <path d="M103.37 23.8979V6.68891C103.37 6.68891 106.241 7.38462 106.241 8.61539C106.241 9.84616 106.241 14.7451 106.241 18.4495C106.241 22.1538 103.37 23.8979 103.37 23.8979ZM104.853 3.89401C103.749 3.89401 102.897 3.04612 102.897 1.94701C102.897 0.847891 103.749 0 104.853 0C105.894 0 106.746 0.847891 106.746 1.94701C106.746 3.04612 105.894 3.89401 104.853 3.89401Z" fill="currentColor"/>
    <path d="M111.134 23.8979V0.659472C111.134 0.659472 114.005 1.23107 114.005 2.46184C114.005 3.69261 114.005 18.4495 114.005 18.4495C114.005 22.1538 111.134 23.8979 111.134 23.8979Z" fill="currentColor"/>
    <path d="M118.897 23.8979V6.68891C118.897 6.68891 121.768 7.38462 121.768 8.53507C121.768 9.68552 121.768 15.9758 121.768 18.4495C121.768 20.9231 118.897 23.8979 118.897 23.8979ZM120.38 3.89401C119.276 3.89401 118.424 3.04612 118.424 1.94701C118.424 0.847891 119.276 0 120.38 0C121.421 0 122.273 0.847891 122.273 1.94701C122.273 3.04612 121.421 3.89401 120.38 3.89401Z" fill="currentColor"/>
    <path d="M127.292 18.6783V8.53507H125.052V6.17982H127.292V1.84615C127.292 1.84615 130.163 2.46154 130.163 3.89401C130.163 5.32649 130.163 6.17982 130.163 6.17982H134.674V8.53507H130.163V18.6783C130.163 20.3741 131.704 19.7722 132.492 19.2488C133.281 18.7254 134.674 17.9404 134.674 17.9404C134.527 22.1538 131.428 23.7095 130.783 23.6715C130.139 23.6334 127.292 23.3888 127.292 18.6783Z" fill="currentColor"/>
    <path d="M144.715 20.632L150.078 6.68891H153.043L144.185 28.3939C143.206 30.7692 139.667 32 139.667 32L143.074 23.7095L136.102 6.68891H139.289L144.715 20.632Z" fill="currentColor"/>
    <path d="M62.1664 16.8557C62.1664 21.5385 57.0877 24 53.3015 24C49.5152 24 44.6889 21.5385 44.6889 16.8557C44.6889 11.423 48.5377 8 53.4277 8C58.3491 8 62.1664 11.423 62.1664 16.8557ZM47.1686 16.6154C47.1686 20.9804 50.8883 24 53.3015 24C55.8478 24 59.5675 20.9804 59.5675 16.6154C59.5675 12.2817 56.3616 10.4809 53.3961 10.4809C50.3675 10.4809 47.1686 12.2817 47.1686 16.6154Z" fill="currentColor"/>
</svg>
